<svg width="2688" height="2688" viewBox="0 0 2688 2688" fill="none" xmlns="http://www.w3.org/2000/svg">
<path d="M1563.98 140.891H638.833C550.006 140.891 476 214.897 476 303.724V2379.79C476 2468.62 550.006 2542.63 638.833 2542.63H2052.48C2141.31 2542.63 2215.31 2468.62 2215.31 2379.79V795.903L1834.14 522.061L1563.98 140.891Z" fill="#2678FF"/>
<path d="M1612.1 747.781L2215.29 1358.4V795.9L1612.1 747.781Z" fill="url(#paint0_linear)"/>
<rect x="1456.37" y="38.0469" width="974.321" height="974.321"/>
<path d="M1561.68 142.566V634.745C1561.68 723.572 1635.68 797.578 1724.51 797.578H2212.98L1561.68 142.566Z" fill="#8AB5FF"/>
<path d="M638.833 140.891C550.006 140.891 476 214.897 476 303.723V318.52C476 229.693 550.006 155.687 638.833 155.687H1563.98V140.891H638.833Z" fill="white" fill-opacity="0.2"/>
<path d="M2052.48 2531.51H638.833C550.006 2531.51 476 2457.5 476 2368.68V2383.47C476 2472.3 550.006 2546.31 638.833 2546.31H2052.48C2141.31 2546.31 2215.31 2472.3 2215.31 2383.47V2368.68C2215.29 2457.48 2141.28 2531.51 2052.48 2531.51Z" fill="#1A237E" fill-opacity="0.2"/>
<path d="M1726.81 795.899C1637.99 795.899 1563.98 721.893 1563.98 633.066V647.863C1563.98 736.69 1637.99 810.695 1726.81 810.695H2215.29V795.899H1726.81Z" fill="#1A237E" fill-opacity="0.1"/>
<path fill-rule="evenodd" clip-rule="evenodd" d="M1294.31 1076.28C1253.11 1076.28 1219.71 1109.68 1219.71 1150.88V1474.65C1219.71 1490.03 1207.24 1502.5 1191.86 1502.5H868.087C826.885 1502.5 793.484 1535.9 793.484 1577.11V1637.07C793.484 1678.28 826.885 1711.68 868.087 1711.68H1191.86C1207.24 1711.68 1219.71 1724.15 1219.71 1739.53V2063.3C1219.71 2104.5 1253.11 2137.9 1294.31 2137.9H1354.28C1395.48 2137.9 1428.88 2104.5 1428.88 2063.3V1739.53C1428.88 1724.15 1441.35 1711.68 1456.73 1711.68H1780.5C1821.7 1711.68 1855.1 1678.28 1855.1 1637.07V1577.11C1855.1 1535.9 1821.7 1502.5 1780.5 1502.5H1456.73C1441.35 1502.5 1428.88 1490.03 1428.88 1474.65V1150.88C1428.88 1109.68 1395.48 1076.28 1354.28 1076.28H1294.31Z" fill="white"/>
<rect x="790.574" y="1453.14" width="1095.67" height="295.67" rx="124.338" fill="white"/>
<rect x="1486.24" y="1053.14" width="1095.67" height="295.67" rx="124.338" transform="rotate(90 1486.24 1053.14)" fill="white"/>
<defs>
<linearGradient id="paint0_linear" x1="1913.7" y1="800.703" x2="1913.7" y2="1356.47" gradientUnits="userSpaceOnUse">
<stop stop-color="#1A237E" stop-opacity="0.2"/>
<stop offset="1" stop-color="#1A237E" stop-opacity="0.02"/>
</linearGradient>
</defs>
</svg>
