<?xml version='1.0' encoding='UTF-8'?><!DOCTYPE svg PUBLIC "-//W3C//DTD SVG 1.1//EN" "http://www.w3.org/Graphics/SVG/1.1/DTD/svg11.dtd"><svg xmlns="http://www.w3.org/2000/svg" xmlns:xlink="http://www.w3.org/1999/xlink" version="1.1" x="0" y="0" width="29px" height="1049px" viewBox="0 0 29 1049" preserveAspectRatio="none"><g transform="translate(0,308)"><rect fill="#4387FD" fill-opacity="0" width="21" height="21"/>
<polygon fill="#999999" points="15.5,7.414 14.085,6 10.5,9.586 6.914,6 5.5,7.414 9.085,11 5.5,14.586 6.914,16 10.5,12.414   14.085,16 15.5,14.586 11.914,11 "/>
</g><g transform="translate(0,281)"><g xmlns:sketch="http://www.bohemiancoding.com/sketch/ns" id="Page-1" stroke="none" stroke-width="1" fill="none" fill-rule="evenodd" sketch:type="MSPage">
        <g id="Artboard-1" sketch:type="MSArtboardGroup">
            <g id="Oval-26-+-ic_link_24px-3" sketch:type="MSLayerGroup">
                <circle id="Oval-26" fill="#558B2F" sketch:type="MSShapeGroup" cx="12" cy="12" r="12"/>
                <g id="ic_link_24px-3" transform="translate(3.000000, 3.000000)" sketch:type="MSShapeGroup">
                    <rect id="Rectangle-path" x="0" y="0" width="18" height="18"/>
                    <path d="M2.925,9 C2.925,7.725 3.975,6.675 5.25,6.675 L8.25,6.675 L8.25,5.25 L5.25,5.25 C3.15,5.25 1.5,6.9 1.5,9 C1.5,11.1 3.15,12.75 5.25,12.75 L8.25,12.75 L8.25,11.325 L5.25,11.325 C3.975,11.325 2.925,10.275 2.925,9 L2.925,9 Z M6,9.75 L12,9.75 L12,8.25 L6,8.25 L6,9.75 L6,9.75 Z M12.75,5.25 L9.75,5.25 L9.75,6.675 L12.75,6.675 C14.025,6.675 15.075,7.725 15.075,9 C15.075,10.275 14.025,11.325 12.75,11.325 L9.75,11.325 L9.75,12.75 L12.75,12.75 C14.85,12.75 16.5,11.1 16.5,9 C16.5,6.9 14.85,5.25 12.75,5.25 L12.75,5.25 Z" id="Shape" fill="#FFFFFF"/>
                </g>
            </g>
        </g>
    </g>
</g><g transform="translate(0,709)"><path fill="#FFFFFF" d="M8.214,18.199H6.5c-0.939,0-1.7-0.762-1.7-1.699c0-0.938,0.761-1.701,1.7-1.701h1.714  c0.364,0,0.593,0.174,0.786,0.451h1C9.707,14.541,8.947,14,8.214,14H6.5C5.118,14,4,15.119,4,16.5C4,17.879,5.118,19,6.5,19h1.714  c0.733,0,1.493-0.541,1.786-1.25H9C8.807,18.026,8.578,18.199,8.214,18.199z M7,16.498C7,16.774,7.225,17,7.5,17h6  c0.275,0,0.5-0.226,0.5-0.502C14,16.223,13.775,16,13.5,16h-6C7.225,16,7,16.221,7,16.498z M14.5,14h-1.715  c-0.732,0-1.492,0.541-1.785,1.25h1c0.193-0.277,0.422-0.451,0.785-0.451H14.5c0.939,0,1.7,0.763,1.7,1.701  c0,0.938-0.761,1.699-1.7,1.699h-1.715c-0.363,0-0.592-0.173-0.785-0.449h-1c0.293,0.709,1.053,1.25,1.785,1.25H14.5  c1.382,0,2.49-1.121,2.49-2.5C16.99,15.119,15.882,14,14.5,14z M11,6V2H4v11h13V6H11z M7,11H6v-1h1V11z M7,9H6V8h1V9z M7,7H6V6h1V7z   M7,5H6V4h1V5z M9,11H8v-1h1V11z M9,9H8V8h1V9z M9,7H8V6h1V7z M9,5H8V4h1V5z M13,11h-1v-1h1V11z M13,9h-1V8h1V9z M15,11h-1v-1h1V11z   M15,9h-1V8h1V9z"/>
<rect fill="#4387FD" fill-opacity="0" width="21" height="21"/>
</g><g transform="translate(0,1004)"><path fill="#FFFFFF" d="M11,9V5H4v11h13V9H11z M7,14H6v-1h1V14z M7,12H6v-1h1V12z M7,10H6V9h1V10z M7,8H6V7h1V8z M9,14H8v-1h1V14z   M9,12H8v-1h1V12z M9,10H8V9h1V10z M9,8H8V7h1V8z M13,14h-1v-1h1V14z M13,12h-1v-1h1V12z M15,14h-1v-1h1V14z M15,12h-1v-1h1V12z"/>
<rect fill="#4387FD" fill-opacity="0" width="21" height="21"/>
</g><g transform="translate(0,757)"><path d="M2 15.5005V2h7.5378v2.98092H17V15.5005H2Zm1.57506-1.575h1.40586v-1.4059H3.57506v1.4059Zm0-2.9809h1.40586V9.5378H3.57506v1.4068Zm0-2.98186h1.40586V6.55598H3.57506v1.40676Zm0-2.98182h1.40586V3.57506H3.57506v1.40586Zm2.98092 8.94458h1.40676v-1.4059H6.55598v1.4059Zm0-2.9809h1.40676V9.5378H6.55598v1.4068Zm0-2.98186h1.40676V6.55598H6.55598v1.40676Zm0-2.98182h1.40676V3.57506H6.55598v1.40586ZM9.5378 13.9255h5.8871V6.55598H9.5378v1.40676h1.4995V9.5378H9.5378v1.4068h1.4995v1.575H9.5378v1.4059Zm2.9062-4.3877V7.96274h1.5751V9.5378H12.444Zm0 2.9818v-1.575h1.5751v1.575H12.444Z" fill="#001D35"/>
</g><g transform="translate(0,802)"><rect fill="none" width="29" height="29"/>
<path fill="#4D90FE" d="M25.805,10.054c-0.005-0.019-0.026-0.044-0.071-0.076L14.706,1.863c-0.151-0.113-0.334-0.172-0.515-0.172  c-0.183,0-0.364,0.056-0.518,0.172L2.601,10.02c-0.029,0.021-0.033,0.033-0.046,0.045c-0.337,0.32-0.554,0.762-0.555,1.26V25.26  C2,26.219,2.778,27,3.741,27H25c0.962,0,2-0.781,2-1.74V11.325C26.998,10.821,26.153,10.372,25.805,10.054z"/>
<path fill="#FFFFFF" d="M14.191,19.285c-0.184,0-0.364-0.057-0.518-0.172L3.92,11.911c-0.387-0.285-0.469-0.835-0.18-1.219  c0.287-0.384,0.829-0.469,1.217-0.18L14.191,17l9.23-6.822c0.395,0.047,0.935,0.13,1.219,0.514c0.287,0.387,0.204,0.934-0.18,1.219  l-9.757,7.202C14.555,19.229,14.372,19.285,14.191,19.285z"/>
</g><g transform="translate(0,932)"><path opacity="0.5" fill="#FFFFFF" d="M13.834,11.834c1.425,0,2.583-1.159,2.583-2.584c0-1.426-1.158-2.583-2.583-2.583  c-1.429,0-2.583,1.157-2.583,2.583C11.251,10.675,12.405,11.834,13.834,11.834z M13.834,13.125c-2.584,0-5.167,0.903-5.167,2.065V17  H19v-1.81C19,14.028,16.417,13.125,13.834,13.125z"/>
<path fill="#FFFFFF" d="M9,10c1.656,0,3-1.342,3-3c0-1.656-1.344-3-3-3C7.344,4,6,5.344,6,7C6,8.658,7.344,10,9,10z M9,12  c-2,0-6,1-6,3v2h12v-2C15,13,11,12,9,12z"/>
<rect fill="#4387FD" fill-opacity="0" width="21" height="21"/>
</g><g transform="translate(0,538)"><defs>
</defs>
<path d="M4,13.586V17h3.416l7.498-7.5L11.5,6.084L4,13.586z M16.584,5.826l-1.41-1.41c-0.551-0.553-1.449-0.555-2.004-0.004  l-1.193,1.195l3.416,3.414l1.193-1.193C17.139,7.275,17.137,6.381,16.584,5.826z"/>
<rect opacity="0" fill="#4387FD" width="21" height="21"/>
</g><g transform="translate(0,1028)"><path d="M10,10c1.656,0,3-1.342,3-3c0-1.656-1.344-3-3-3S7,5.344,7,7C7,8.658,8.344,10,10,10z M10,12c-2,0-6,1-6,3v2h12v-2  C16,13,12,12,10,12z"/>
<rect fill="#4387FD" fill-opacity="0" width="21" height="21"/>
</g><g transform="translate(0,113)"><path d="M11,10c1.104,0,2-0.896,2-2s-0.896-2-2-2C9.896,6,9.001,6.896,9.001,8S9.896,10,11,10z M11,11c-2,0-4,0.699-4,1.6V14h8v-1.4  C15,11.699,13,11,11,11z"/>
<circle cx="5.646" cy="9.5" r="1.5"/>
<path d="M5.646,12.125c-1.25,0-2.5,0.438-2.5,1V14h5v-0.875C8.146,12.562,6.896,12.125,5.646,12.125z"/>
<circle cx="16.5" cy="9.5" r="1.5"/>
<path d="M16.5,12.125c-1.25,0-2.5,0.438-2.5,1V14h5v-0.875C19,12.562,17.75,12.125,16.5,12.125z"/>
<rect fill="#4387FD" fill-opacity="0" width="21" height="21"/>
</g><g transform="translate(0,412)"><path d="M16,11.166C16,9.332,12.333,8.6,10.5,8.6S5,9.332,5,11.166v1.832h11V11.166z M10.5,7c1.38,0,2.49-1.119,2.49-2.5  S11.88,2,10.5,2S8,3.119,8,4.5S9.12,7,10.5,7z M7,16.498C7,16.774,7.225,17,7.5,17h6c0.275,0,0.5-0.226,0.5-0.502  C14,16.223,13.775,16,13.5,16h-6C7.225,16,7,16.221,7,16.498z M8.214,18.199H6.5c-0.939,0-1.7-0.762-1.7-1.699  c0-0.938,0.761-1.701,1.7-1.701h1.714c0.364,0,0.593,0.174,0.786,0.451h1C9.707,14.541,8.947,14,8.214,14H6.5  C5.118,14,4,15.119,4,16.5C4,17.879,5.118,19,6.5,19h1.714c0.733,0,1.493-0.541,1.786-1.25H9  C8.807,18.026,8.578,18.199,8.214,18.199z M14.5,14h-1.715c-0.732,0-1.492,0.541-1.785,1.25h1c0.193-0.277,0.422-0.451,0.785-0.451  H14.5c0.939,0,1.7,0.763,1.7,1.701c0,0.938-0.761,1.699-1.7,1.699h-1.715c-0.363,0-0.592-0.173-0.785-0.449h-1  c0.293,0.709,1.053,1.25,1.785,1.25H14.5c1.382,0,2.49-1.121,2.49-2.5C16.99,15.119,15.882,14,14.5,14z"/>
<rect fill="#4387FD" fill-opacity="0" width="21" height="21"/>
</g><g transform="translate(0,69)"><path d="M8.99999.749695c1.06261 0 1.95961.365695 2.69101 1.097095.7308.7314 1.0962 1.6284 1.0962 2.691v1.4625h.6381c.4374 0 .8091.153 1.1151.459.3066.3066.4599.6786.4599 1.116v7.33051c0 .438-.1533.813-.4599 1.125-.306.3126-.6777.4689-1.1151.4689H4.5747c-.4374 0-.80911-.1563-1.11511-.4689-.3066-.312-.4599-.687-.4599-1.125V7.57529c0-.4374.1533-.8094.4599-1.116.306-.306.67771-.459 1.11511-.459h.63809v-1.4625c0-1.0626.36541-1.9596 1.09621-2.691.7314-.7314 1.62839-1.097095 2.69099-1.097095Zm0 1.574995c-.6126 0-1.13459.2157-1.56599.6471-.4308.4314-.64621.9534-.64621 1.566v1.4625h4.42441v-1.4625c0-.6126-.2154-1.1346-.6462-1.566-.4314-.4314-.95341-.6471-1.56601-.6471ZM4.5747 14.9247h8.8506V7.57529H4.5747v7.34941Zm4.42529-5.19391c-.4248 0-.7842.147-1.0782.44101-.294.294-.44099.6534-.44099 1.0782 0 .4248.14699.7842.44099 1.0782.294.294.6534.441 1.0782.441.4248 0 .7842-.147 1.07821-.441.294-.294.441-.6534.441-1.0782 0-.4248-.147-.7842-.441-1.0782-.29401-.29401-.65341-.44101-1.07821-.44101ZM4.5747 7.57529v7.34941-7.34941Z" fill="#001D35"/>
</g><g transform="translate(0,658)"><defs>
</defs>
<path d="M10.5,8C9.119,8,8,9.119,8,10.5S9.119,13,10.5,13s2.5-1.119,2.5-2.5S11.881,8,10.5,8z M10.499,4C6.598,4,3.314,6.701,2,10.5  c1.314,3.799,4.598,6.5,8.499,6.5c3.903,0,7.183-2.701,8.501-6.5C17.682,6.701,14.402,4,10.499,4z M10.5,15.2  c-2.596,0-4.7-2.104-4.7-4.7s2.104-4.7,4.7-4.7s4.699,2.104,4.699,4.7S13.096,15.2,10.5,15.2z"/>
<rect opacity="0" fill="#4387FD" width="21" height="21"/>
</g><g transform="translate(0,257)"><path id="path3079" d="m10.5 18.705h-9.645l0.1749-0.29281c0.096196-0.16105 2.2385-3.8533 4.7607-8.205 2.5221-4.3515 4.6414-7.912 4.7094-7.912 0.06801 0 2.1872 3.5605 4.7094 7.9122s4.6645 8.044 4.7607 8.205l0.175 0.293h-9.645zm0-2.6256h0.87484v-1.7504h-1.7497v1.7504h0.87484zm0-3.5008h0.87484v-3.5008h-1.7497v3.5008h0.87484z" fill="#da4336"/>
</g><g transform="translate(0,733)"><rect fill="#4387FD" fill-opacity="0" width="21" height="21"/>
<polygon fill="#CC0000" points="15.5,7.414 14.085,6 10.5,9.586 6.914,6 5.5,7.414 9.085,11 5.5,14.586 6.914,16 10.5,12.414   14.085,16 15.5,14.586 11.914,11 "/>
</g><g transform="translate(0,236)"><path d="M8.76917 15.388v-1.4436c-.41282 0-.76293-.144-1.05034-.432-.28741-.2875-.43112-.6373-.43112-1.0495v-.7506L3.72447 8.14995c-.0498.22501-.0873.45001-.11251.67502-.0246.22501-.0369.45002-.0369.67503 0 1.5001.49352 2.8096 1.48056 3.9287.98764 1.1184 2.22549 1.7715 3.71355 1.9593Zm5.09963-1.8936c.5124-.5503.9-1.1662 1.1628-1.8478.2622-.681.3933-1.3966.3933-2.1466 0-1.21265-.3342-2.31879-1.0026-3.31843-.669-1.00024-1.5661-1.71907-2.6911-2.15649v.28081c0 .41282-.1437.76293-.4311 1.05034-.2874.28742-.6376.43112-1.0504.43112H8.76917v1.48146c0 .21241-.072.39062-.21601.53462-.144.14341-.32221.21511-.53462.21511H6.53708V9.5h4.44442c.2124 0 .3906.0687.5346.20611.1434.1374.2151.31229.2151.52469v2.2321h.7317c.3246 0 .615.0936.8713.2808.2568.1878.435.438.5346.7507ZM9.5 17c-1.03744 0-2.01248-.1968-2.92512-.5904-.91263-.3936-1.70647-.928-2.38149-1.603-.67503-.675-1.20935-1.4688-1.60297-2.3815C2.19681 11.5125 2 10.5374 2 9.5c0-1.03744.19681-2.01248.59042-2.92512.39362-.91263.92794-1.70647 1.60297-2.38149.67502-.67503 1.46886-1.20935 2.38149-1.60297C7.48752 2.19681 8.46256 2 9.5 2c1.0374 0 2.0125.19681 2.9251.59042.9127.39362 1.7065.92794 2.3815 1.60297.675.67502 1.2094 1.46886 1.603 2.38149C16.8032 7.48752 17 8.46256 17 9.5c0 1.0374-.1968 2.0125-.5904 2.9251-.3936.9127-.928 1.7065-1.603 2.3815-.675.675-1.4688 1.2094-2.3815 1.603C11.5125 16.8032 10.5374 17 9.5 17Z" fill="#001D35"/>
</g><g transform="translate(0,0)"><path d="M14,9V8.5C14,6.565,12.434,5,10.5,5S7,6.565,7,8.5V9c-0.553,0-1,0.446-1,1v5c0,0.553,0.447,1,1,1h7c0.553,0,1-0.447,1-1v-5  C15,9.446,14.553,9,14,9z M10.5,14.25c-0.968,0-1.75-0.783-1.75-1.75c0-0.968,0.782-1.75,1.75-1.75c0.967,0,1.75,0.782,1.75,1.75  C12.25,13.467,11.467,14.25,10.5,14.25z M13,9H8V8.5C8,7,9,5.899,10.5,5.899S13,7,13,8.5V9z"/>
<rect fill="#4387FD" fill-opacity="0" width="21" height="21"/>
</g><g transform="translate(0,460)"><defs>
</defs>
<path d="M16,5H4C3.449,5,3.002,5.449,3,6v8c0,0.553,0.447,1,1,1h12c0.553,0,1-0.447,1-1V6C16.998,5.449,16.55,5,16,5z"/>
<path fill="#FFFFFF" d="M10,11.037c-0.105,0-0.209-0.032-0.297-0.098L4.103,6.803c-0.222-0.164-0.269-0.479-0.104-0.7  s0.476-0.27,0.699-0.104L10,9.916l5.302-3.918c0.225-0.165,0.535-0.117,0.7,0.104c0.164,0.222,0.117,0.536-0.104,0.7l-5.601,4.137  C10.209,11.005,10.104,11.037,10,11.037z"/>
<rect opacity="0" fill="#4387FD" width="21" height="21"/>
</g><g transform="translate(0,511)"><path d="M21.99 4c0-1.1-.89-2-1.99-2H4c-1.1 0-2 .9-2 2v12c0 1.1.9 2 2 2h14l4 4-.01-18zM18 14H6v-2h12v2zm0-3H6V9h12v2zm0-3H6V6h12v2z"/>
    <path d="M0 0h24v24H0z" fill="none"/>
</g><g transform="translate(0,356)"><defs>
</defs>
<path d="M2,13.8C2,14.463,2.537,15,3.199,15H5v4l4.4-4H16.8c0.663,0,1.2-0.537,1.2-1.2V4.2C18,3.537,17.463,3,16.8,3H3.199  C2.537,3,2,3.537,2,4.2V13.8z M15,11H5v-1h10V11z M15,9H5V8h10V9z M15,7H5V6h10V7z"/>
<rect opacity="0" fill="#4387FD" width="21" height="21"/>
</g><g transform="translate(0,484)"><g xmlns:sketch="http://www.bohemiancoding.com/sketch/ns" id="Page-1" stroke="none" stroke-width="1" fill="none" fill-rule="evenodd" sketch:type="MSPage">
        <g id="Artboard-3" sketch:type="MSArtboardGroup">
            <g id="Oval-26-+-ic_link_24px-3" sketch:type="MSLayerGroup" transform="translate(3.000000, 3.000000)">
                <g id="ic_link_24px-3" sketch:type="MSShapeGroup">
                    <rect id="Rectangle-path" x="0" y="0" width="18" height="18"/>
                    <path d="M2.925,9 C2.925,7.725 3.975,6.675 5.25,6.675 L8.25,6.675 L8.25,5.25 L5.25,5.25 C3.15,5.25 1.5,6.9 1.5,9 C1.5,11.1 3.15,12.75 5.25,12.75 L8.25,12.75 L8.25,11.325 L5.25,11.325 C3.975,11.325 2.925,10.275 2.925,9 L2.925,9 Z M6,9.75 L12,9.75 L12,8.25 L6,8.25 L6,9.75 L6,9.75 Z M12.75,5.25 L9.75,5.25 L9.75,6.675 L12.75,6.675 C14.025,6.675 15.075,7.725 15.075,9 C15.075,10.275 14.025,11.325 12.75,11.325 L9.75,11.325 L9.75,12.75 L12.75,12.75 C14.85,12.75 16.5,11.1 16.5,9 C16.5,6.9 14.85,5.25 12.75,5.25 L12.75,5.25 Z" id="Shape" fill="#000000"/>
                </g>
            </g>
        </g>
    </g>
</g><g transform="translate(0,137)"><defs>
</defs>
<polygon points="7,9 10.545,13.001 14,9 "/>
<rect opacity="0" fill="#4387FD" width="21" height="21"/>
</g><g transform="translate(0,834)"><defs>
</defs>
<polygon points="14.5,7.845 13.155,6.5 10.5,9.155 7.845,6.5 6.5,7.845 9.155,10.5 6.5,13.155 7.845,14.5 10.5,11.845 13.155,14.5   14.5,13.155 11.845,10.5 "/>
<rect opacity="0" fill="#4387FD" width="21" height="21"/>
</g><g transform="translate(0,185)"><g xmlns:sketch="http://www.bohemiancoding.com/sketch/ns" id="Page-1" stroke="none" stroke-width="1" fill="none" fill-rule="evenodd" sketch:type="MSPage">
        <g id="Artboard-2" sketch:type="MSArtboardGroup">
            <g id="Oval-26-+-ic_link_24px-3" sketch:type="MSLayerGroup">
                <circle id="Oval-26" stroke-opacity="0.2" stroke="#000000" fill="#FFFFFF" sketch:type="MSShapeGroup" cx="12" cy="12" r="11.5"/>
                <g id="ic_link_24px-3" transform="translate(3.000000, 3.000000)" sketch:type="MSShapeGroup">
                    <rect id="Rectangle-path" x="0" y="0" width="18" height="18"/>
                    <path d="M2.925,9 C2.925,7.725 3.975,6.675 5.25,6.675 L8.25,6.675 L8.25,5.25 L5.25,5.25 C3.15,5.25 1.5,6.9 1.5,9 C1.5,11.1 3.15,12.75 5.25,12.75 L8.25,12.75 L8.25,11.325 L5.25,11.325 C3.975,11.325 2.925,10.275 2.925,9 L2.925,9 Z M6,9.75 L12,9.75 L12,8.25 L6,8.25 L6,9.75 L6,9.75 Z M12.75,5.25 L9.75,5.25 L9.75,6.675 L12.75,6.675 C14.025,6.675 15.075,7.725 15.075,9 C15.075,10.275 14.025,11.325 12.75,11.325 L9.75,11.325 L9.75,12.75 L12.75,12.75 C14.85,12.75 16.5,11.1 16.5,9 C16.5,6.9 14.85,5.25 12.75,5.25 L12.75,5.25 Z" id="Shape" fill-opacity="0.54" fill="#000000"/>
                </g>
            </g>
        </g>
    </g>
</g><g transform="translate(0,24)"><path d="M1 15.0191v-2.1564c0-.4373.1125-.8312.33749-1.1816.22499-.3498.51898-.6123.88197-.7875.74997-.375 1.53714-.6561 2.36151-.8433.82557-.18775 1.65054-.28165 2.47491-.28165.82557 0 1.65054.0969 2.47491.29065.82561.1938 1.61331.4719 2.36331.8343.3624.1752.6561.4377.8811.7875.225.3504.3375.7443.3375 1.1816v2.1564H1Zm11.8877-5.17485c.6623.075 1.2683.20305 1.8179.38425.5502.1812 1.0752.4029 1.5749.6651.4626.2502.7815.5316.9567.8442.1752.3126.2628.6876.2628 1.1249v2.1564h-2.9249v-2.3256c0-.4997-.1407-1.0091-.4221-1.5281-.2814-.5184-.7032-.9588-1.2653-1.32115Zm-5.83182-.84417c-.84957 0-1.56174-.28739-2.13652-.86217-.57538-.57538-.86307-1.28785-.86307-2.13742 0-.85017.28769-1.56264.86307-2.13742C5.49414 3.28769 6.20631 3 7.05588 3c.85017 0 1.56294.28769 2.13832.86307.57478.57478.8622 1.28725.8622 2.13742 0 .84957-.28742 1.56204-.8622 2.13742-.57538.57478-1.28815.86217-2.13832.86217Zm7.50032-2.99959c0 .84957-.2874 1.56204-.8622 2.13742-.5753.57478-1.2881.86217-2.1383.86217-.1374 0-.3279-.0186-.5715-.0558-.2436-.0378-.434-.07529-.5714-.11249.3245-.40019.5774-.84087.7586-1.32205.1818-.48119.2727-.98427.2727-1.50925 0-.51238-.0909-1.00916-.2727-1.49035-.1812-.48118-.4341-.92186-.7586-1.32205.1872-.06239.3809-.10919.5813-.14039.1998-.0318.387-.0477.5616-.0477.8502 0 1.563.28769 2.1383.86307.5748.57478.8622 1.28725.8622 2.13742ZM2.57494 13.4441h8.96276v-.5814c0-.1374-.0312-.2531-.0936-.3473-.063-.0936-.1443-.159-.2439-.1962-.6503-.3-1.33492-.5376-2.0537-.7128-.71817-.1752-1.41504-.2628-2.09062-.2628-.67438 0-1.37095.0846-2.08972.2538-.71878.1686-1.40335.4092-2.05373.7218-.0996.0372-.18059.1026-.24299.1962-.063.0942-.0945.2099-.0945.3473v.5814Zm4.48094-6.01896c.41278 0 .75357-.1344 1.02236-.40319s.40319-.60927.40319-1.02146c0-.41278-.1344-.75357-.40319-1.02236s-.60958-.40319-1.02236-.40319c-.41219 0-.75267.1344-1.02146.40319-.26879.26879-.40319.60958-.40319 1.02236 0 .41219.1344.75267.40319 1.02146.26879.26879.60927.40319 1.02146.40319Z" fill="#001D35"/>
</g><g transform="translate(0,956)"><g xmlns:sketch="http://www.bohemiancoding.com/sketch/ns" id="Page-1" stroke="none" stroke-width="1" fill="none" fill-rule="evenodd" sketch:type="MSPage">
        <g id="ic_timer_24px" sketch:type="MSLayerGroup">
            <path d="M0,0 L21,0 L21,21 L0,21 L0,0 Z" id="Shape" sketch:type="MSShapeGroup"/>
        </g>
        <g id="Artboard-1" sketch:type="MSArtboardGroup" fill="#000000">
            <path d="M13,0 L7,0 L7,2 L13,2 L13,0 L13,0 Z M9,13 L11,13 L11,7 L9,7 L9,13 L9,13 Z M17.03,6.39 L18.45,4.97 C18.02,4.46 17.55,3.98 17.04,3.56 L15.62,4.98 C14.07,3.74 12.12,3 10,3 C5.03,3 1,7.03 1,12 C1,16.97 5.02,21 10,21 C14.98,21 19,16.97 19,12 C19,9.88 18.26,7.93 17.03,6.39 L17.03,6.39 Z M10,19 C6.13,19 3,15.87 3,12 C3,8.13 6.13,5 10,5 C13.87,5 17,8.13 17,12 C17,15.87 13.87,19 10,19 L10,19 Z" id="Shape" sketch:type="MSShapeGroup"/>
        </g>
    </g>
</g><g transform="translate(0,332)"><path id="path3079" d="m10.5 18.705h-9.645l0.1749-0.29281c0.096196-0.16105 2.2385-3.8533 4.7607-8.205 2.5221-4.3515 4.6414-7.912 4.7094-7.912 0.06801 0 2.1872 3.5605 4.7094 7.9122s4.6645 8.044 4.7607 8.205l0.175 0.293h-9.645zm0-2.6256h0.87484v-1.7504h-1.7497v1.7504h0.87484zm0-3.5008h0.87484v-3.5008h-1.7497v3.5008h0.87484z" fill="#fff"/>
</g><g transform="translate(0,682)"><path d="M0 0h24v24H0z" fill="none"/>
    <path d="M12 4.5C7 4.5 2.73 7.61 1 12c1.73 4.39 6 7.5 11 7.5s9.27-3.11 11-7.5c-1.73-4.39-6-7.5-11-7.5zM12 17c-2.76 0-5-2.24-5-5s2.24-5 5-5 5 2.24 5 5-2.24 5-5 5zm0-8c-1.66 0-3 1.34-3 3s1.34 3 3 3 3-1.34 3-3-1.34-3-3-3z"/>
</g><g transform="translate(0,778)"><path opacity="0.5" enable-background="new    " d="M13.834,11.834c1.425,0,2.583-1.159,2.583-2.584  c0-1.426-1.158-2.583-2.583-2.583c-1.43,0-2.583,1.157-2.583,2.583C11.251,10.675,12.404,11.834,13.834,11.834z M13.834,13.125  c-2.584,0-5.167,0.902-5.167,2.064V17H19v-1.811C19,14.027,16.417,13.125,13.834,13.125z"/>
<path d="M9,10c1.656,0,3-1.342,3-3c0-1.656-1.344-3-3-3S6,5.344,6,7C6,8.658,7.344,10,9,10z M9,12c-2,0-6,1-6,3v2h12v-2  C15,13,11,12,9,12z"/>
<rect fill="#4387FD" fill-opacity="0" width="21" height="21"/>
</g><g transform="translate(0,212)"><defs>
</defs>
<path d="M15,4h-0.511C14.806,4.419,15,4.936,15,5.5V11h-4v5H6V5.5C6,4.936,6.194,4.419,6.511,4H6C5.447,4,5,4.447,5,5v11  c0,0.553,0.447,1,1,1h5l5-6V5C16,4.447,15.552,4,15,4z M14,5.5C14,4.672,13.328,4,12.5,4h-0.592C11.964,3.843,12,3.676,12,3.5  C12,2.672,11.328,2,10.5,2C9.671,2,9,2.672,9,3.5C9,3.676,9.035,3.843,9.092,4H8.5C7.671,4,7,4.672,7,5.5V6h7V5.5z M10.5,4.25  c-0.416,0-0.75-0.336-0.75-0.75s0.334-0.75,0.75-0.75c0.413,0,0.75,0.336,0.75,0.75S10.913,4.25,10.5,4.25z"/>
<rect opacity="0" fill="#4387FD" width="21" height="21"/>
</g><g transform="translate(0,882)"><path d="M3 17.25V21h3.75L17.81 9.94l-3.75-3.75L3 17.25zM20.71 7.04c.39-.39.39-1.02 0-1.41l-2.34-2.34c-.39-.39-1.02-.39-1.41 0l-1.83 1.83 3.75 3.75 1.83-1.83z"/>
    <path d="M0 0h24v24H0z" fill="none"/>
</g><g transform="translate(0,562)"><path fill="#FFFFFF" d="M16,11.166C16,9.332,12.333,8.6,10.5,8.6S5,9.332,5,11.166v1.832h11V11.166z M10.5,7  c1.38,0,2.49-1.119,2.49-2.5S11.88,2,10.5,2S8,3.119,8,4.5S9.12,7,10.5,7z M7,16.498C7,16.774,7.225,17,7.5,17h6  c0.275,0,0.5-0.226,0.5-0.502C14,16.223,13.775,16,13.5,16h-6C7.225,16,7,16.221,7,16.498z M8.214,18.199H6.5  c-0.939,0-1.7-0.762-1.7-1.699c0-0.938,0.761-1.701,1.7-1.701h1.714c0.364,0,0.593,0.174,0.786,0.451h1  C9.707,14.541,8.947,14,8.214,14H6.5C5.118,14,4,15.119,4,16.5C4,17.879,5.118,19,6.5,19h1.714c0.733,0,1.493-0.541,1.786-1.25H9  C8.807,18.026,8.578,18.199,8.214,18.199z M14.5,14h-1.715c-0.732,0-1.492,0.541-1.785,1.25h1c0.193-0.277,0.422-0.451,0.785-0.451  H14.5c0.939,0,1.7,0.763,1.7,1.701c0,0.938-0.761,1.699-1.7,1.699h-1.715c-0.363,0-0.592-0.173-0.785-0.449h-1  c0.293,0.709,1.053,1.25,1.785,1.25H14.5c1.382,0,2.49-1.121,2.49-2.5C16.99,15.119,15.882,14,14.5,14z"/>
<rect fill="#4387FD" fill-opacity="0" width="21" height="21"/>
</g><g transform="translate(0,858)"><rect y="0" fill="#4387FD" fill-opacity="0" width="21" height="21"/>
<polygon fill="#1155CC" points="7,8 10.545,12 14,8 "/>
</g><g transform="translate(0,161)"><g>
	<path d="M10,2c-4.418,0-8,3.582-8,8s3.582,8,8,8s8-3.582,8-8S14.418,2,10,2z M10,17.099c-3.921,0-7.1-3.179-7.1-7.101   c0-1.045,0.23-2.033,0.638-2.925L5,9.998c0,0,4,2.99,4,3v0.913c0,1.087,1,0.997,1,1.087V17.099z M15,15.039v-1.08   C15,13.272,14.749,13,14.064,13H12v-1c0,0,0-2-2-2H7l0.012-2h0.973c0.668,0,1.017,0,1.017-0.875V6h1.065c1.935,0,1.935-2,1.935-2   V3.189C14.947,4.053,17.1,6.772,17.1,10C17.1,11.969,16.296,13.752,15,15.039z"/>
	<rect fill="#4387FD" fill-opacity="0" width="21" height="21"/>
</g>
</g><g transform="translate(0,45)"><path fill="#FFFFFF" d="M10,2c-4.418,0-8,3.582-8,8s3.582,8,8,8s8-3.582,8-8S14.418,2,10,2z M10,17.099  c-3.921,0-7.1-3.179-7.1-7.101c0-1.045,0.23-2.033,0.638-2.925L5,9.998c0,0,4,2.99,4,3v0.913c0,1.087,1,0.997,1,1.087V17.099z   M15,15.039v-1.08C15,13.272,14.749,13,14.064,13H12v-1c0,0,0-2-2-2H7l0.012-2h0.973c0.668,0,1.017,0,1.017-0.875V6h1.065  c1.935,0,1.935-2,1.935-2V3.189C14.947,4.053,17.1,6.772,17.1,10C17.1,11.969,16.296,13.752,15,15.039z"/>
<rect fill="#4387FD" fill-opacity="0" width="21" height="21"/>
</g><g transform="translate(0,380)"><rect x="0" y="0" fill="#4387FD" fill-opacity="0" width="29" height="29"/>
<path fill="#4D90FE" d="M25,5.19H3.781C2.8,5.19,2.004,5.99,2,6.972V21.22C2,22.204,2.796,23,3.781,23H25c0.984,0,2-0.796,2-1.78  V6.972C26.997,5.99,25.979,5.19,25,5.19z"/>
<path fill="#FFFFFF" d="M14.468,15.942c-0.187,0-0.373-0.058-0.529-0.175L3.964,8.402C3.57,8.109,3.486,7.548,3.78,7.155  C4.074,6.76,4.627,6.674,5.026,6.969l9.441,6.975l9.441-6.976c0.403-0.294,0.952-0.209,1.247,0.185  c0.292,0.396,0.209,0.955-0.185,1.246l-9.975,7.368C14.84,15.885,14.653,15.942,14.468,15.942z"/>
</g><g transform="translate(0,586)"><path fill="#FFFFFF" d="M14,9V8.5C14,6.565,12.434,5,10.5,5S7,6.565,7,8.5V9c-0.553,0-1,0.446-1,1v5c0,0.553,0.447,1,1,1h7  c0.553,0,1-0.447,1-1v-5C15,9.446,14.553,9,14,9z M10.5,14.25c-0.968,0-1.75-0.783-1.75-1.75c0-0.968,0.782-1.75,1.75-1.75  c0.967,0,1.75,0.782,1.75,1.75C12.25,13.467,11.467,14.25,10.5,14.25z M13,9H8V8.5C8,7,9,5.899,10.5,5.899S13,7,13,8.5V9z"/>
<rect fill="#4387FD" fill-opacity="0" width="21" height="21"/>
</g><g transform="translate(0,634)"><path id="path3079" d="m10.5 18.705h-9.645l0.1749-0.29281c0.096196-0.16105 2.2385-3.8533 4.7607-8.205 2.5221-4.3515 4.6414-7.912 4.7094-7.912 0.06801 0 2.1872 3.5605 4.7094 7.9122s4.6645 8.044 4.7607 8.205l0.175 0.293h-9.645zm0-2.6256h0.87484v-1.7504h-1.7497v1.7504h0.87484zm0-3.5008h0.87484v-3.5008h-1.7497v3.5008h0.87484z" fill="#000"/>
</g><g transform="translate(0,90)"><path d="M10.021 10.458ZM.833 17.5 10 1.667 19.167 17.5Zm8.313-5.062h1.75V8.354h-1.75ZM10.021 15q.354 0 .614-.26.261-.261.261-.615t-.261-.615q-.26-.26-.614-.26t-.615.26q-.26.261-.26.615t.26.615q.261.26.615.26Zm-6.167.75h12.292L10 5.167Z" fill="#001D35"/>
</g><g transform="translate(0,610)"><path d="M8.214,18.199H6.5c-0.939,0-1.7-0.762-1.7-1.699c0-0.938,0.761-1.701,1.7-1.701h1.714c0.364,0,0.593,0.174,0.786,0.451h1  C9.707,14.541,8.947,14,8.214,14H6.5C5.118,14,4,15.119,4,16.5C4,17.879,5.118,19,6.5,19h1.714c0.733,0,1.493-0.541,1.786-1.25H9  C8.807,18.026,8.578,18.199,8.214,18.199z M7,16.498C7,16.774,7.225,17,7.5,17h6c0.275,0,0.5-0.226,0.5-0.502  C14,16.223,13.775,16,13.5,16h-6C7.225,16,7,16.221,7,16.498z M14.5,14h-1.715c-0.732,0-1.492,0.541-1.785,1.25h1  c0.193-0.277,0.422-0.451,0.785-0.451H14.5c0.939,0,1.7,0.763,1.7,1.701c0,0.938-0.761,1.699-1.7,1.699h-1.715  c-0.363,0-0.592-0.173-0.785-0.449h-1c0.293,0.709,1.053,1.25,1.785,1.25H14.5c1.382,0,2.49-1.121,2.49-2.5  C16.99,15.119,15.882,14,14.5,14z M11,6V2H4v11h13V6H11z M7,11H6v-1h1V11z M7,9H6V8h1V9z M7,7H6V6h1V7z M7,5H6V4h1V5z M9,11H8v-1h1  V11z M9,9H8V8h1V9z M9,7H8V6h1V7z M9,5H8V4h1V5z M13,11h-1v-1h1V11z M13,9h-1V8h1V9z M15,11h-1v-1h1V11z M15,9h-1V8h1V9z"/>
<rect fill="#4387FD" fill-opacity="0" width="21" height="21"/>
</g><g transform="translate(0,909)"><path d="M14.958 11.667V9.208H12.5v-1.75h2.458V5h1.75v2.458h2.459v1.75h-2.459v2.459ZM7.542 9.979q-1.417 0-2.375-.958-.959-.959-.959-2.375 0-1.417.959-2.375.958-.959 2.375-.959 1.416 0 2.375.959.958.958.958 2.375 0 1.416-.958 2.375-.959.958-2.375.958ZM.833 16.667v-2.396q0-.729.375-1.313.375-.583.98-.875 1.291-.625 2.645-.937 1.355-.313 2.729-.313 1.376 0 2.73.323t2.646.927q.604.292.968.875.365.584.365 1.313v2.396Zm1.75-1.75h9.938v-.646q0-.229-.104-.396-.105-.167-.271-.208-1.104-.521-2.261-.802-1.156-.282-2.323-.282-1.166 0-2.322.282-1.157.281-2.261.802-.187.062-.291.218-.105.157-.105.386Zm4.959-6.688q.687 0 1.135-.448.448-.448.448-1.135 0-.688-.448-1.136-.448-.448-1.135-.448-.688 0-1.136.448-.448.448-.448 1.136 0 .687.448 1.135.448.448 1.136.448Zm0-1.583Zm.02 5.937Z" fill="#001D35"/>
</g><g transform="translate(0,436)"><!-- Generator: Sketch 39.1 (31720) - http://www.bohemiancoding.com/sketch -->
    <title>Artboard</title>
    <desc>Created with Sketch.</desc>
    <defs/>
    <g id="Page-1" stroke="none" stroke-width="1" fill="none" fill-rule="evenodd">
        <g id="Artboard">
            <g id="ic_security_black_24dp">
                <path d="M10.5,0.875 L2.625,4.375 L2.625,9.625 C2.625,14.48125 5.985,19.0225 10.5,20.125 C15.015,19.0225 18.375,14.48125 18.375,9.625 L18.375,4.375 L10.5,0.875 L10.5,0.875 Z M10.5,10.49125 L16.625,10.49125 C16.16125,14.09625 13.755,17.3075 10.5,18.31375 L10.5,10.5 L4.375,10.5 L4.375,5.5125 L10.5,2.79125 L10.5,10.49125 L10.5,10.49125 Z" id="Shape" fill="#FFFFFF"/>
                <polygon id="Shape" points="0 0 21 0 21 21 0 21"/>
            </g>
        </g>
    </g>
</g><g transform="translate(0,980)"><path d="M11,9V5H4v11h13V9H11z M7,14H6v-1h1V14z M7,12H6v-1h1V12z M7,10H6V9h1V10z M7,8H6V7h1V8z M9,14H8v-1h1V14z M9,12H8v-1h1V12z   M9,10H8V9h1V10z M9,8H8V7h1V8z M13,14h-1v-1h1V14z M13,12h-1v-1h1V12z M15,14h-1v-1h1V14z M15,12h-1v-1h1V12z"/>
<rect fill="#4387FD" fill-opacity="0" width="21" height="21"/>
</g></svg>