<?xml version="1.0" encoding="utf-8"?>
<!-- Generator: Adobe Illustrator 27.0.0, SVG Export Plug-In . SVG Version: 6.00 Build 0)  -->
<svg version="1.1" id="Layer_1" xmlns="http://www.w3.org/2000/svg" xmlns:xlink="http://www.w3.org/1999/xlink" x="0px" y="0px"
	 viewBox="0 0 20 14" enable-background="new 0 0 20 14" xml:space="preserve">
<path fill="#1A73E8" d="M15.5,14h-10C2.5,14,0,11.5,0,8.5c0-2.8,2.1-5.1,4.8-5.4C5.8,1.2,7.8,0,10,0c3,0,5.4,2.2,5.9,5
	C18.2,5.2,20,7.2,20,9.5C20,12,18,14,15.5,14z M10,2C8.4,2,7,2.9,6.3,4.4L6.1,5L5.4,5C3.5,5,2,6.6,2,8.5C2,10.4,3.6,12,5.5,12h10
	c1.4,0,2.5-1.1,2.5-2.5S16.9,7,15.5,7H14V6C14,3.8,12.2,2,10,2z M11.6,5L8.9,7.7L7.4,6.2L6,7.6l2.9,2.9L13,6.4L11.6,5z"/>
</svg>
